<?xml version="1.0" encoding="UTF-8"?>
<svg id="Ebene_1" xmlns="http://www.w3.org/2000/svg" version="1.1" viewBox="0 0 17 17">
  <!-- Generator: Adobe Illustrator 29.0.1, SVG Export Plug-In . SVG Version: 2.1.0 Build 192)  -->
  <defs>
    <style>
      .st0 {
        fill: #033e3f;
      }

      .st1 {
        fill: #fff;
      }

      .st2 {
        stroke: #fff;
        stroke-miterlimit: 10;
        stroke-width: .5px;
      }

      .st2, .st3 {
        fill: none;
      }

      .st4 {
        fill: #0b7982;
      }
    </style>
  </defs>
  <rect class="st4" width="17" height="17"/>
  <rect class="st0" y="0" width="17" height="7.2"/>
  <path class="st1" d="M7.8,6.3v-.2h-1.9v.2h1.9Z"/>
  <rect class="st3" x=".2" y="0" width="16.8" height="8.6"/>
  <g>
    <circle class="st2" cx="8.7" cy="10" r="1.8"/>
    <path class="st2" d="M5.9,15.8c0-1.8,1.3-3.2,2.9-3.2s2.9,1.5,2.9,3.2h-5.7Z"/>
  </g>
  <path class="st1" d="M4.7,5.9v-1.9c0-.1,0-.2,0-.3s0-.1-.1-.2c0,0-.1,0-.2,0s-.1,0-.2,0-.1,0-.2,0-.1,0-.2,0c0,0,0,0-.1.2,0,0,0,.2,0,.3v1.9h-.8V1.6h.8v1.4c.1-.1.2-.2.3-.2.1,0,.3,0,.4,0s.3,0,.5,0,.2.1.3.2.2.2.2.4c0,.1,0,.3,0,.5v2h-.8Z"/>
  <path class="st1" d="M10,5.9v-.3c-.1.1-.2.2-.3.3-.1,0-.3,0-.4,0s-.3,0-.4,0-.2-.1-.3-.2c0,0-.1-.2-.2-.3s0-.2,0-.3,0-.2,0-.4c0-.1,0-.2,0-.4s0-.2,0-.4c0-.1,0-.2,0-.4,0-.1,0-.2,0-.3,0-.1.1-.2.2-.3s.2-.2.3-.2c.1,0,.3,0,.4,0s.3,0,.4,0c.1,0,.2.1.3.2v-1.4h.8v4.3h-.8ZM10,4.4c0-.1,0-.2,0-.4s0-.2,0-.3c0,0,0-.1-.2-.2,0,0-.2,0-.3,0s-.2,0-.3,0-.1.1-.2.2c0,0,0,.2,0,.3s0,.2,0,.4,0,.2,0,.4,0,.2,0,.3c0,0,0,.1.2.2s.2,0,.3,0,.2,0,.3,0c0,0,.1-.1.2-.2,0,0,0-.2,0-.3s0-.2,0-.4Z"/>
  <path class="st1" d="M13.2,5.9v-.3c-.1.1-.2.2-.3.2-.1,0-.3,0-.4,0-.3,0-.6,0-.8-.3,0,0-.1-.2-.2-.3,0-.1,0-.2,0-.4s0-.2,0-.4c0-.1.1-.2.2-.3s.2-.1.3-.2.3,0,.5,0h.7v-.2c0-.2,0-.3-.1-.4,0,0-.2-.1-.4-.1s-.1,0-.2,0c0,0-.1,0-.2,0s0,0-.1,0,0,0-.1.1l-.5-.5c.2-.2.3-.3.5-.3s.4,0,.6,0c.4,0,.8,0,1,.3.2.2.3.5.3.8v2.1h-.8ZM13.2,4.6h-.6c-.1,0-.2,0-.3,0,0,0-.1.1-.1.3s0,.2.1.3c0,0,.2,0,.3,0s.2,0,.3,0,.1,0,.2-.1c0,0,.1-.2.1-.4v-.2Z"/>
</svg>