<?xml version="1.0" encoding="UTF-8"?>
<svg id="Ebene_1" xmlns="http://www.w3.org/2000/svg" version="1.1" viewBox="0 0 17 17">
  <!-- Generator: Adobe Illustrator 29.0.0, SVG Export Plug-In . SVG Version: 2.1.0 Build 186)  -->
  <defs>
    <style>
      .st0 {
        fill: #C7471D;
      }

      .st1 {
        fill: #033e3f;
      }

      .st2 {
        fill: #fff;
      }

      .st3 {
        stroke: #fff;
        stroke-miterlimit: 10;
        stroke-width: .5px;
      }

      .st3, .st4 {
        fill: none;
      }
    </style>
  </defs>
  <rect class="st0" y="0" width="17" height="17"/>
  <rect class="st1" y="0" width="17" height="7.2"/>
  <path class="st2" d="M7.8,6.3v-.2h-1.9v.2h1.9Z"/>
  <rect class="st4" x=".2" y="0" width="16.8" height="8.6"/>
  <g>
    <circle class="st3" cx="5.3" cy="10.5" r="1.2"/>
    <path class="st3" d="M3.5,14.3c0-1.2.9-2.1,1.9-2.1s1.9,1,1.9,2.1h-3.8Z"/>
  </g>
  <path class="st2" d="M4.7,5.9v-2.2q0,0,0-.2h-.8v.2c0,0,0,.2,0,.3v1.9h-.8V1.6h.8v1.4c0,0,.2-.2.3-.2h.9c.2,0,.2,0,.3.2s.2.2.2.4v2.5h-.8,0Z"/>
  <path class="st2" d="M10,5.9v-.3c-.1,0-.2.2-.3.3h-.8c0,0-.2,0-.3-.2,0,0-.1-.2-.2-.3s0-.2,0-.3v-1.9c0,0,.1-.2.2-.3s.2-.2.3-.2h.8c.1,0,.2,0,.3.2v-1.4h.8v4.3h-.8ZM10,4.4v-.7s0,0-.2-.2h-.6c-.1,0-.1,0-.2.2v1.4s0,0,.2.2.2,0,.3,0h.3s.1,0,.2-.2v-.7Z"/>
  <path class="st2" d="M13.2,5.9v-.3c-.1,0-.2.2-.3.2h-.4c-.3,0-.6,0-.8-.3,0,0-.1-.2-.2-.3v-.8c0,0,.1-.2.2-.3s.2,0,.3-.2.3,0,.5,0h.7v-.2c0-.2,0-.3-.1-.4,0,0-.2,0-.4,0h-.5c-.1,0,0,0-.1,0l-.5-.5c.2-.2.3-.3.5-.3h.6c.4,0,.8,0,1,.3.2.2.3.5.3.8v2.1h-.8v.2ZM13.2,4.6h-.9s-.1,0-.1.3,0,.2.1.3h.6q.1,0,.2,0s.1-.2.1-.4v-.2h0Z"/>
  <path class="st2" d="M13.8,13.6c0,0,0,.2-.1.2,0,0-.2.1-.2.1s-.2,0-.2-.1l-.9-.9c-.3.2-.7.3-1.1.3s-.5,0-.8-.2c-.2-.1-.4-.2-.6-.4s-.3-.4-.4-.6c-.1-.2-.2-.5-.2-.8s0-.5.2-.8c.1-.2.2-.4.4-.6s.4-.3.6-.4c.2-.1.5-.2.8-.2s.5,0,.8.2c.2.1.4.2.6.4s.3.4.4.6c.1.2.2.5.2.8,0,.4-.1.8-.3,1.1l.9.9c0,0,.1.2.1.2ZM12,12.2c.2-.2.4-.5.4-.9s-.1-.6-.4-.9c-.2-.2-.5-.4-.9-.4s-.6.1-.9.4c-.2.2-.4.5-.4.9s.1.6.4.9.5.4.9.4.6-.1.9-.4Z"/>
</svg>